<svg width="144" height="205" viewBox="0 0 144 205" fill="none" xmlns="http://www.w3.org/2000/svg">
<rect x="30.7357" y="72.9528" width="82.5286" height="3.36703" rx="1.68352" fill="#333333" stroke="black" stroke-width="2"/>
<path d="M34.3943 157.539V153.516C43.9068 142.559 49.6656 128.253 49.6656 112.604C49.6656 99.8269 45.8263 87.9437 39.2385 78.0487H104.761C98.1736 87.9437 94.3343 99.8269 94.3343 112.604C94.3343 128.253 100.093 142.559 109.606 153.516V157.539H34.3943Z" fill="#333333" stroke="black" stroke-width="2"/>
<rect x="30.7357" y="78.0487" width="82.5286" height="9.22081" rx="4.61041" fill="#333333" stroke="black" stroke-width="2"/>
<rect x="23.3273" y="159.539" width="97.3452" height="12.9595" fill="#333333" stroke="black" stroke-width="2"/>
<rect x="10.296" y="174.498" width="123.408" height="13.707" fill="#333333" stroke="black" stroke-width="2"/>
<rect x="1.98888" y="190.205" width="140.022" height="13.707" fill="#333333" stroke="black" stroke-width="2"/>
<mask id="path-7-inside-1_469_445" fill="white">
<path fill-rule="evenodd" clip-rule="evenodd" d="M81.4906 22.8502C83.846 20.4933 85.3028 17.2382 85.3028 13.6428C85.3028 6.44916 79.4711 0.617554 72.2775 0.617554C65.0838 0.617554 59.2522 6.44916 59.2522 13.6428C59.2522 17.2382 60.709 20.4933 63.0644 22.8502L50.4049 37.8502L72.2775 51.9813L94.1501 37.8502L81.4906 22.8502Z"/>
</mask>
<path fill-rule="evenodd" clip-rule="evenodd" d="M81.4906 22.8502C83.846 20.4933 85.3028 17.2382 85.3028 13.6428C85.3028 6.44916 79.4711 0.617554 72.2775 0.617554C65.0838 0.617554 59.2522 6.44916 59.2522 13.6428C59.2522 17.2382 60.709 20.4933 63.0644 22.8502L50.4049 37.8502L72.2775 51.9813L94.1501 37.8502L81.4906 22.8502Z" fill="#333333"/>
<path d="M81.4906 22.8502L80.076 21.4364L78.7772 22.736L79.9622 24.1401L81.4906 22.8502ZM63.0644 22.8502L64.5928 24.1401L65.7778 22.736L64.479 21.4364L63.0644 22.8502ZM50.4049 37.8502L48.8765 36.5602L47.4108 38.2969L49.3196 39.5301L50.4049 37.8502ZM72.2775 51.9813L71.1922 53.6612L72.2775 54.3624L73.3628 53.6612L72.2775 51.9813ZM94.1501 37.8502L95.2354 39.5301L97.1442 38.2969L95.6785 36.5602L94.1501 37.8502ZM83.3028 13.6428C83.3028 16.6867 82.0719 19.4393 80.076 21.4364L82.9053 24.264C85.6202 21.5474 87.3028 17.7897 87.3028 13.6428H83.3028ZM72.2775 2.61755C78.3666 2.61755 83.3028 7.55373 83.3028 13.6428H87.3028C87.3028 5.34459 80.5757 -1.38245 72.2775 -1.38245V2.61755ZM61.2522 13.6428C61.2522 7.55373 66.1884 2.61755 72.2775 2.61755V-1.38245C63.9793 -1.38245 57.2522 5.34459 57.2522 13.6428H61.2522ZM64.479 21.4364C62.4831 19.4393 61.2522 16.6867 61.2522 13.6428H57.2522C57.2522 17.7897 58.9348 21.5474 61.6497 24.264L64.479 21.4364ZM61.536 21.5603L48.8765 36.5602L51.9333 39.1401L64.5928 24.1401L61.536 21.5603ZM49.3196 39.5301L71.1922 53.6612L73.3628 50.3014L51.4902 36.1703L49.3196 39.5301ZM73.3628 53.6612L95.2354 39.5301L93.0648 36.1703L71.1922 50.3014L73.3628 53.6612ZM95.6785 36.5602L83.019 21.5603L79.9622 24.1401L92.6217 39.1401L95.6785 36.5602Z" fill="black" mask="url(#path-7-inside-1_469_445)"/>
<path d="M37.0218 74.6363C34.5872 67.9411 27.3277 52.5589 17.7663 44.5911C8.20502 36.6233 16.3277 34.7421 21.5842 34.7974C24.3437 35.3771 31.1186 37.342 36.1419 40.5639C39.3399 42.6149 39.1551 39.6451 38.9312 36.0452C38.7154 32.5768 38.4632 28.5234 41.1652 27.8123C46.6251 26.3755 50.9452 30.1625 58.6461 36.9132L58.8435 37.0862C62.8746 40.6197 63.9041 37.3049 65.1603 33.2602C66.3425 29.4538 67.7255 25.001 72 25.001C76.2744 25.001 77.6574 29.4538 78.8396 33.2602C80.0958 37.3049 81.1253 40.6197 85.1564 37.0862L85.3538 36.9132C93.0547 30.1625 97.3748 26.3755 102.835 27.8123C105.537 28.5234 105.285 32.5768 105.069 36.0452C104.845 39.6451 104.66 42.6149 107.858 40.5639C112.881 37.342 119.656 35.3771 122.416 34.7974C127.672 34.7421 135.795 36.6233 126.234 44.5911C116.672 52.5589 109.413 67.9411 106.978 74.6363H37.0218Z" fill="#333333" stroke="black" stroke-width="2"/>
</svg>
