<svg width="143" height="223" viewBox="0 0 143 223" fill="none" xmlns="http://www.w3.org/2000/svg">
<circle cx="72.0323" cy="15.0874" r="13.8859" fill="#333333" stroke="black" stroke-width="2"/>
<rect x="59.6612" y="26.6453" width="24.339" height="1.73029" rx="0.865147" fill="#333333" stroke="black" stroke-width="1.73029"/>
<path d="M34.2251 174.951V170.928C43.7376 159.972 49.4964 145.665 49.4964 130.016C49.4964 117.239 45.6571 105.356 39.0693 95.4612H104.592C98.0044 105.356 94.1651 117.239 94.1651 130.016C94.1651 145.665 99.9238 159.972 109.436 170.928V174.951H34.2251Z" fill="#333333" stroke="black" stroke-width="2"/>
<path fill-rule="evenodd" clip-rule="evenodd" d="M71.8308 27.5104H64.4231L33.4456 72.0464C30.7366 76.6795 28.9448 87.6487 43.4503 94.4612H71.8308H100.211C114.717 87.6487 112.925 76.6795 110.216 72.0464L79.2384 27.5104H71.8308Z" fill="#333333"/>
<path d="M64.4231 27.5104V26.5104H63.9005L63.6021 26.9394L64.4231 27.5104ZM33.4456 72.0464L32.6247 71.4754L32.6022 71.5077L32.5823 71.5417L33.4456 72.0464ZM43.4503 94.4612L43.0252 95.3664L43.2271 95.4612H43.4503V94.4612ZM100.211 94.4612V95.4612H100.434L100.636 95.3664L100.211 94.4612ZM110.216 72.0464L111.079 71.5417L111.059 71.5077L111.037 71.4754L110.216 72.0464ZM79.2384 27.5104L80.0594 26.9394L79.761 26.5104H79.2384V27.5104ZM64.4231 28.5104H71.8308V26.5104H64.4231V28.5104ZM34.2665 72.6174L65.244 28.0814L63.6021 26.9394L32.6247 71.4754L34.2665 72.6174ZM43.8754 93.5561C36.8401 90.2519 33.9045 86.0225 32.9635 82.1976C32.0104 78.3233 33.0594 74.688 34.3089 72.5512L32.5823 71.5417C31.1227 74.0379 29.9214 78.2037 31.0215 82.6754C32.1337 87.1965 35.555 91.858 43.0252 95.3664L43.8754 93.5561ZM71.8308 93.4612H43.4503V95.4612H71.8308V93.4612ZM71.8308 95.4612H100.211V93.4612H71.8308V95.4612ZM100.636 95.3664C108.107 91.858 111.528 87.1965 112.64 82.6754C113.74 78.2037 112.539 74.0379 111.079 71.5417L109.353 72.5512C110.602 74.688 111.651 78.3233 110.698 82.1976C109.757 86.0225 106.821 90.2519 99.7861 93.5561L100.636 95.3664ZM111.037 71.4754L80.0594 26.9394L78.4175 28.0814L109.395 72.6174L111.037 71.4754ZM79.2384 26.5104H71.8308V28.5104H79.2384V26.5104Z" fill="black"/>
<rect x="30.5665" y="95.4612" width="82.5286" height="9.22081" rx="4.61041" fill="#333333" stroke="black" stroke-width="2"/>
<rect x="23.1581" y="176.951" width="97.3452" height="12.9595" fill="#333333" stroke="black" stroke-width="2"/>
<rect x="10.1268" y="191.911" width="123.408" height="13.707" fill="#333333" stroke="black" stroke-width="2"/>
<rect x="1.81964" y="207.617" width="140.022" height="13.707" fill="#333333" stroke="black" stroke-width="2"/>
</svg>
