<svg width="186" height="209" viewBox="0 0 186 209" fill="none" xmlns="http://www.w3.org/2000/svg">
<path d="M80.3553 1.05334C73.5927 1.05334 75.1394 14.8424 76.7581 21.7369C74.9314 26.9398 68.867 29.2418 65.343 31.9115C61.8189 34.5813 64.9158 38.5325 58.6153 41.6293C52.3147 44.7262 45.587 50.386 33.5198 59.9971C21.4527 69.6081 14.191 73.0253 6.5022 73.9864C0.351155 74.7553 0.664403 79.4327 1.58991 81.6752L19.9576 102.179H28.1804C28.7143 99.1887 32.3452 93.6356 40.6747 92.4609C49.0042 91.2863 68.0127 95.6646 79.6527 89.6844C88.9647 84.9003 95.1371 75.2323 97.0593 70.9963L94.0182 79.8841C86.33 101.027 53.7751 111.918 38.4586 114.721C32.9327 126.134 47.2572 149.256 55.1102 159.391V162.98H136.291V159.687C147.658 148.32 154.129 124.127 155.944 113.452C156.355 124.004 149.005 145.296 145.278 154.623L170.631 163.097C185.719 140.062 192.479 101.421 172.553 62.5771C156.57 31.4192 124.1 21.6698 109.863 20.6898L109.132 24.7944C97.9093 5.36989 85.2713 0.873478 80.3553 1.05334Z" fill="#333333" stroke="black" stroke-width="2"/>
<rect x="45.5272" y="163.578" width="97.3452" height="12.9595" fill="#333333" stroke="black" stroke-width="2"/>
<rect x="32.4959" y="178.538" width="123.408" height="13.707" fill="#333333" stroke="black" stroke-width="2"/>
<rect x="24.1888" y="194.245" width="140.022" height="13.707" fill="#333333" stroke="black" stroke-width="2"/>
</svg>
