<svg width="144" height="170" viewBox="0 0 144 170" fill="none" xmlns="http://www.w3.org/2000/svg">
<path d="M100.748 26.6788C100.748 40.7127 87.9852 52.2747 72 52.2747C56.0148 52.2747 43.2523 40.7127 43.2523 26.6788C43.2523 12.645 56.0148 1.08301 72 1.08301C87.9852 1.08301 100.748 12.645 100.748 26.6788Z" fill="#333333" stroke="black" stroke-width="2"/>
<path d="M34.3944 122.544V118.521C43.9069 107.564 49.6657 93.258 49.6657 77.6091C49.6657 64.832 45.8264 52.9489 39.2386 43.0538H104.761C98.1737 52.9489 94.3344 64.832 94.3344 77.6091C94.3344 93.258 100.093 107.564 109.606 118.521V122.544H34.3944Z" fill="#333333" stroke="black" stroke-width="2"/>
<rect x="30.7357" y="43.0538" width="82.5286" height="9.22081" rx="4.61041" fill="#333333" stroke="black" stroke-width="2"/>
<rect x="23.3273" y="124.544" width="97.3452" height="12.9595" fill="#333333" stroke="black" stroke-width="2"/>
<rect x="10.296" y="139.503" width="123.408" height="13.707" fill="#333333" stroke="black" stroke-width="2"/>
<rect x="1.98889" y="155.21" width="140.022" height="13.707" fill="#333333" stroke="black" stroke-width="2"/>
</svg>
