<svg width="143" height="163" viewBox="0 0 143 163" fill="none" xmlns="http://www.w3.org/2000/svg">
<rect x="17.6345" y="35.6213" width="108.393" height="9.22081" rx="4.61041" fill="#333333" stroke="black" stroke-width="2"/>
<rect x="23.1581" y="117.111" width="97.3452" height="12.9595" fill="#333333" stroke="black" stroke-width="2"/>
<rect x="10.1268" y="132.071" width="123.408" height="13.707" fill="#333333" stroke="black" stroke-width="2"/>
<rect x="1.8197" y="147.778" width="140.022" height="13.707" fill="#333333" stroke="black" stroke-width="2"/>
<path d="M32.3777 45.8422C33.6422 46.3733 36.1712 47.834 36.1712 49.4275C36.1712 51.0211 30.1015 96.038 27.0667 118.347C26.5609 119.808 25.094 122.849 23.2731 123.327C21.4522 123.805 54.8862 123.526 71.8308 123.327C88.7754 123.526 122.209 123.805 120.389 123.327C118.568 122.849 117.101 119.808 116.595 118.347C113.56 96.038 107.49 51.0211 107.49 49.4275C107.49 47.834 110.019 46.3733 111.284 45.8422H71.8308H32.3777Z" fill="#333333" stroke="black" stroke-width="2"/>
<path d="M125.938 1.04126L123.408 36.116L109.198 34.985H21.0266L16.0143 1.26561H41.5316L42.8986 26.8589H59.4545V1.26561H83.7568V26.8589H109.198L108.962 1.31443L125.938 1.04126Z" fill="#3D3D3D" stroke="black" stroke-width="2"/>
<path d="M120.862 21.2708L122.073 1.31323H125.758L124.441 21.2708H124.467L124.091 26.5718L123.915 29.2434H123.902L123.409 36.2054H20.2171L15.8551 1.39807H35.1256L36.6913 21.2708H48.0127L46.3266 1.39807H72.8235V21.2708H89.083V1.39807H112.81V21.2708H120.862Z" fill="#333333" stroke="black" stroke-width="2"/>
</svg>
