<svg width="143" height="223" viewBox="0 0 143 223" fill="none" xmlns="http://www.w3.org/2000/svg">
<path d="M121.259 61.7523C121.259 70.1989 115.856 80.8806 106.921 89.4926C98.0119 98.0794 85.749 104.451 72.2594 104.451C58.7699 104.451 46.507 98.0794 37.5981 89.4926C28.663 80.8806 23.2594 70.1989 23.2594 61.7523C23.2594 53.3967 28.5662 45.6905 37.4422 40.024C46.3067 34.3649 58.6137 30.8319 72.2594 30.8319C85.9051 30.8319 98.2122 34.3649 107.077 40.024C115.953 45.6905 121.259 53.3967 121.259 61.7523Z" fill="#333333" stroke="black" stroke-width="2"/>
<path d="M68.4404 14.9327H69.4404V13.9327V1.90649H74.4236V13.9327V14.9327H75.4236H87.4499V19.9159H75.4236H74.4236V20.9159V32.9423H69.4404V20.9159V19.9159H68.4404H56.4142V14.9327H68.4404Z" fill="#333333" stroke="black" stroke-width="2"/>
<rect x="30.6678" y="90.1343" width="82.5286" height="3.36703" rx="1.68352" fill="#333333" stroke="black" stroke-width="2"/>
<path d="M34.3265 174.72V170.697C43.839 159.741 49.5977 145.434 49.5977 129.786C49.5977 117.008 45.7584 105.125 39.1706 95.2302H104.694C98.1057 105.125 94.2664 117.008 94.2664 129.786C94.2664 145.434 100.025 159.741 109.538 170.697V174.72H34.3265Z" fill="#333333" stroke="black" stroke-width="2"/>
<rect x="30.6678" y="95.2302" width="82.5286" height="9.22081" rx="4.61041" fill="#333333" stroke="black" stroke-width="2"/>
<rect x="23.2594" y="176.72" width="97.3452" height="12.9595" fill="#333333" stroke="black" stroke-width="2"/>
<rect x="10.2281" y="191.68" width="123.408" height="13.707" fill="#333333" stroke="black" stroke-width="2"/>
<rect x="1.92101" y="207.386" width="140.022" height="13.707" fill="#333333" stroke="black" stroke-width="2"/>
<circle cx="72.2208" cy="17.2923" r="6.73348" fill="#333333" stroke="black" stroke-width="2"/>
</svg>
